<mxfile host="app.diagrams.net" modified="2021-08-12T04:28:32.126Z" agent="5.0 (Macintosh; Intel Mac OS X 10_15_7) AppleWebKit/537.36 (KHTML, like Gecko) Chrome/92.0.4515.131 Safari/537.36" etag="BgWVw3QO3BP-NRTnJVr2" version="14.9.3" type="github">
  <diagram id="aiT8fo1YCvwdFHmHLhPH" name="第 1 页">
    <mxGraphModel dx="1780" dy="1178" grid="1" gridSize="10" guides="1" tooltips="1" connect="1" arrows="1" fold="1" page="1" pageScale="1" pageWidth="827" pageHeight="1169" math="0" shadow="0">
      <root>
        <mxCell id="0" />
        <mxCell id="1" parent="0" />
        <mxCell id="ZwFR-6YlKGhIhmYaUaJ1-9" style="edgeStyle=orthogonalEdgeStyle;rounded=0;orthogonalLoop=1;jettySize=auto;html=1;exitX=0.5;exitY=1;exitDx=0;exitDy=0;entryX=0.5;entryY=0;entryDx=0;entryDy=0;" edge="1" parent="1" source="ZwFR-6YlKGhIhmYaUaJ1-1" target="ZwFR-6YlKGhIhmYaUaJ1-2">
          <mxGeometry relative="1" as="geometry" />
        </mxCell>
        <mxCell id="ZwFR-6YlKGhIhmYaUaJ1-1" value="开始" style="rounded=0;whiteSpace=wrap;html=1;" vertex="1" parent="1">
          <mxGeometry x="230" y="50" width="120" height="60" as="geometry" />
        </mxCell>
        <mxCell id="ZwFR-6YlKGhIhmYaUaJ1-10" style="edgeStyle=orthogonalEdgeStyle;rounded=0;orthogonalLoop=1;jettySize=auto;html=1;exitX=0.5;exitY=1;exitDx=0;exitDy=0;entryX=0.5;entryY=0;entryDx=0;entryDy=0;" edge="1" parent="1" source="ZwFR-6YlKGhIhmYaUaJ1-2" target="ZwFR-6YlKGhIhmYaUaJ1-3">
          <mxGeometry relative="1" as="geometry" />
        </mxCell>
        <mxCell id="ZwFR-6YlKGhIhmYaUaJ1-2" value="学完" style="rounded=0;whiteSpace=wrap;html=1;" vertex="1" parent="1">
          <mxGeometry x="230" y="140" width="120" height="60" as="geometry" />
        </mxCell>
        <mxCell id="ZwFR-6YlKGhIhmYaUaJ1-11" value="" style="edgeStyle=orthogonalEdgeStyle;rounded=0;orthogonalLoop=1;jettySize=auto;html=1;" edge="1" parent="1" source="ZwFR-6YlKGhIhmYaUaJ1-3" target="ZwFR-6YlKGhIhmYaUaJ1-4">
          <mxGeometry relative="1" as="geometry" />
        </mxCell>
        <mxCell id="ZwFR-6YlKGhIhmYaUaJ1-3" value="开始考试" style="rounded=0;whiteSpace=wrap;html=1;" vertex="1" parent="1">
          <mxGeometry x="230" y="230" width="120" height="50" as="geometry" />
        </mxCell>
        <mxCell id="ZwFR-6YlKGhIhmYaUaJ1-12" value="" style="edgeStyle=orthogonalEdgeStyle;rounded=0;orthogonalLoop=1;jettySize=auto;html=1;" edge="1" parent="1" source="ZwFR-6YlKGhIhmYaUaJ1-4" target="ZwFR-6YlKGhIhmYaUaJ1-5">
          <mxGeometry relative="1" as="geometry" />
        </mxCell>
        <mxCell id="ZwFR-6YlKGhIhmYaUaJ1-4" value="答题" style="rounded=0;whiteSpace=wrap;html=1;" vertex="1" parent="1">
          <mxGeometry x="230" y="310" width="120" height="60" as="geometry" />
        </mxCell>
        <mxCell id="ZwFR-6YlKGhIhmYaUaJ1-14" style="edgeStyle=orthogonalEdgeStyle;rounded=0;orthogonalLoop=1;jettySize=auto;html=1;" edge="1" parent="1" source="ZwFR-6YlKGhIhmYaUaJ1-5" target="ZwFR-6YlKGhIhmYaUaJ1-7">
          <mxGeometry relative="1" as="geometry" />
        </mxCell>
        <mxCell id="ZwFR-6YlKGhIhmYaUaJ1-15" style="edgeStyle=orthogonalEdgeStyle;rounded=0;orthogonalLoop=1;jettySize=auto;html=1;entryX=0.5;entryY=0;entryDx=0;entryDy=0;" edge="1" parent="1" source="ZwFR-6YlKGhIhmYaUaJ1-5" target="ZwFR-6YlKGhIhmYaUaJ1-6">
          <mxGeometry relative="1" as="geometry" />
        </mxCell>
        <mxCell id="ZwFR-6YlKGhIhmYaUaJ1-5" value="提交" style="rounded=0;whiteSpace=wrap;html=1;" vertex="1" parent="1">
          <mxGeometry x="230" y="400" width="120" height="60" as="geometry" />
        </mxCell>
        <mxCell id="ZwFR-6YlKGhIhmYaUaJ1-31" style="edgeStyle=orthogonalEdgeStyle;rounded=0;orthogonalLoop=1;jettySize=auto;html=1;entryX=0.5;entryY=0;entryDx=0;entryDy=0;" edge="1" parent="1" source="ZwFR-6YlKGhIhmYaUaJ1-6" target="ZwFR-6YlKGhIhmYaUaJ1-16">
          <mxGeometry relative="1" as="geometry" />
        </mxCell>
        <mxCell id="ZwFR-6YlKGhIhmYaUaJ1-6" value="人工判卷" style="rounded=0;whiteSpace=wrap;html=1;" vertex="1" parent="1">
          <mxGeometry x="330" y="510" width="120" height="50" as="geometry" />
        </mxCell>
        <mxCell id="ZwFR-6YlKGhIhmYaUaJ1-30" style="edgeStyle=orthogonalEdgeStyle;rounded=0;orthogonalLoop=1;jettySize=auto;html=1;entryX=0.5;entryY=0;entryDx=0;entryDy=0;" edge="1" parent="1" source="ZwFR-6YlKGhIhmYaUaJ1-7" target="ZwFR-6YlKGhIhmYaUaJ1-17">
          <mxGeometry relative="1" as="geometry" />
        </mxCell>
        <mxCell id="ZwFR-6YlKGhIhmYaUaJ1-32" style="edgeStyle=orthogonalEdgeStyle;rounded=0;orthogonalLoop=1;jettySize=auto;html=1;entryX=0.5;entryY=0;entryDx=0;entryDy=0;" edge="1" parent="1" source="ZwFR-6YlKGhIhmYaUaJ1-7" target="ZwFR-6YlKGhIhmYaUaJ1-16">
          <mxGeometry relative="1" as="geometry">
            <Array as="points">
              <mxPoint x="190" y="590" />
              <mxPoint x="390" y="590" />
            </Array>
          </mxGeometry>
        </mxCell>
        <mxCell id="ZwFR-6YlKGhIhmYaUaJ1-7" value="自动判卷" style="rounded=0;whiteSpace=wrap;html=1;" vertex="1" parent="1">
          <mxGeometry x="130" y="510" width="120" height="50" as="geometry" />
        </mxCell>
        <mxCell id="ZwFR-6YlKGhIhmYaUaJ1-33" style="edgeStyle=orthogonalEdgeStyle;rounded=0;orthogonalLoop=1;jettySize=auto;html=1;" edge="1" parent="1" source="ZwFR-6YlKGhIhmYaUaJ1-16" target="ZwFR-6YlKGhIhmYaUaJ1-22">
          <mxGeometry relative="1" as="geometry" />
        </mxCell>
        <mxCell id="ZwFR-6YlKGhIhmYaUaJ1-16" value="通过" style="rounded=0;whiteSpace=wrap;html=1;" vertex="1" parent="1">
          <mxGeometry x="355" y="650" width="70" height="30" as="geometry" />
        </mxCell>
        <mxCell id="ZwFR-6YlKGhIhmYaUaJ1-21" style="edgeStyle=orthogonalEdgeStyle;rounded=0;orthogonalLoop=1;jettySize=auto;html=1;entryX=0;entryY=0.5;entryDx=0;entryDy=0;exitX=0;exitY=0.5;exitDx=0;exitDy=0;" edge="1" parent="1" source="ZwFR-6YlKGhIhmYaUaJ1-17" target="ZwFR-6YlKGhIhmYaUaJ1-3">
          <mxGeometry relative="1" as="geometry">
            <Array as="points">
              <mxPoint x="90" y="665" />
              <mxPoint x="90" y="255" />
            </Array>
          </mxGeometry>
        </mxCell>
        <mxCell id="ZwFR-6YlKGhIhmYaUaJ1-17" value="不通过" style="rounded=0;whiteSpace=wrap;html=1;" vertex="1" parent="1">
          <mxGeometry x="155" y="650" width="70" height="30" as="geometry" />
        </mxCell>
        <mxCell id="ZwFR-6YlKGhIhmYaUaJ1-27" style="edgeStyle=orthogonalEdgeStyle;rounded=0;orthogonalLoop=1;jettySize=auto;html=1;entryX=0.5;entryY=0;entryDx=0;entryDy=0;" edge="1" parent="1" source="ZwFR-6YlKGhIhmYaUaJ1-22" target="ZwFR-6YlKGhIhmYaUaJ1-26">
          <mxGeometry relative="1" as="geometry" />
        </mxCell>
        <mxCell id="ZwFR-6YlKGhIhmYaUaJ1-22" value="生成判卷结果" style="rounded=0;whiteSpace=wrap;html=1;" vertex="1" parent="1">
          <mxGeometry x="330" y="740" width="120" height="60" as="geometry" />
        </mxCell>
        <mxCell id="ZwFR-6YlKGhIhmYaUaJ1-26" value="显示结果" style="rounded=0;whiteSpace=wrap;html=1;" vertex="1" parent="1">
          <mxGeometry x="330" y="870" width="120" height="60" as="geometry" />
        </mxCell>
      </root>
    </mxGraphModel>
  </diagram>
</mxfile>
